<svg width="20" height="20" viewBox="0 0 20 20" fill="none" xmlns="http://www.w3.org/2000/svg">
<path fill-rule="evenodd" clip-rule="evenodd" d="M13.2502 3.75008C13.2502 2.50008 12.0152 1.66675 11.0502 1.66675C10.3785 1.66675 10.326 2.17675 10.2227 3.18341C10.1768 3.62508 10.1218 4.16175 10.0002 4.79175C9.6785 6.46008 8.56683 8.59175 7.5035 9.22925V14.1667C7.50016 16.0417 8.12516 16.6667 10.8335 16.6667H13.9777C15.791 16.6667 16.2302 15.4726 16.3935 15.0301L16.4043 15.0001C16.4993 14.7451 16.7027 14.5442 16.936 14.3167C17.1943 14.0617 17.4893 13.7726 17.7085 13.3334C17.9677 12.8142 17.9335 12.3526 17.9027 11.9417C17.8835 11.6926 17.866 11.4626 17.9168 11.2501C17.9702 11.0251 18.0385 10.8542 18.1043 10.6909C18.2235 10.3942 18.3335 10.1192 18.3335 9.58341C18.3335 8.33341 17.7102 7.50175 16.4043 7.50175H12.9168C12.9168 7.50175 13.2502 5.00008 13.2502 3.75008ZM4.5835 8.33341C4.25198 8.33341 3.93403 8.46511 3.69961 8.69953C3.46519 8.93395 3.3335 9.25189 3.3335 9.58341V15.4167C3.3335 15.7483 3.46519 16.0662 3.69961 16.3006C3.93403 16.5351 4.25198 16.6667 4.5835 16.6667C4.91502 16.6667 5.23296 16.5351 5.46738 16.3006C5.7018 16.0662 5.8335 15.7483 5.8335 15.4167V9.58341C5.8335 9.25189 5.7018 8.93395 5.46738 8.69953C5.23296 8.46511 4.91502 8.33341 4.5835 8.33341Z" fill="white"/>
</svg>
