<svg width="20" height="20" viewBox="0 0 20 20" fill="none" xmlns="http://www.w3.org/2000/svg">
<path fill-rule="evenodd" clip-rule="evenodd" d="M13.2502 16.2499C13.2502 17.4999 12.0152 18.3333 11.0502 18.3333C10.3785 18.3333 10.326 17.8233 10.2227 16.8166C10.1768 16.3749 10.1218 15.8383 10.0002 15.2083C9.6785 13.5399 8.56683 11.4083 7.5035 10.7708V5.83325C7.50016 3.95825 8.12516 3.33325 10.8335 3.33325H13.9777C15.791 3.33325 16.2302 4.52742 16.3935 4.96992L16.4043 4.99992C16.4993 5.25492 16.7027 5.45575 16.936 5.68325C17.1943 5.93825 17.4893 6.22742 17.7085 6.66659C17.9677 7.18575 17.9335 7.64742 17.9027 8.05825C17.8835 8.30742 17.866 8.53742 17.9168 8.74992C17.9702 8.97492 18.0385 9.14575 18.1043 9.30908C18.2235 9.60575 18.3335 9.88075 18.3335 10.4166C18.3335 11.6666 17.7102 12.4983 16.4043 12.4983H12.9168C12.9168 12.4983 13.2502 14.9999 13.2502 16.2499ZM4.5835 11.6666C4.25198 11.6666 3.93403 11.5349 3.69961 11.3005C3.46519 11.066 3.3335 10.7481 3.3335 10.4166V4.58325C3.3335 4.25173 3.46519 3.93379 3.69961 3.69937C3.93403 3.46495 4.25198 3.33325 4.5835 3.33325C4.91502 3.33325 5.23296 3.46495 5.46738 3.69937C5.7018 3.93379 5.8335 4.25173 5.8335 4.58325V10.4166C5.8335 10.7481 5.7018 11.066 5.46738 11.3005C5.23296 11.5349 4.91502 11.6666 4.5835 11.6666Z" fill="white"/>
</svg>
